<?xml version="1.0" encoding="UTF-8" standalone="no"?>
<svg width="744px" height="288px" viewBox="0 0 744 288" version="1.1" xmlns="http://www.w3.org/2000/svg" xmlns:xlink="http://www.w3.org/1999/xlink">
    <!-- Generator: Sketch 41.2 (35397) - http://www.bohemiancoding.com/sketch -->
    <title>Desktop</title>
    <desc>Created with Sketch.</desc>
    <defs>
        <polyline id="path-1" points="227.2451 241.21615 208.448133 241.21615 53 241.21615 53 36.8423981 53 36.8423981 476.966826 36.8423981 476.966826 241.21615 322.856329 241.21615 304.048746 241.21615"></polyline>
        <mask id="mask-2" maskContentUnits="userSpaceOnUse" maskUnits="objectBoundingBox" x="0" y="0" width="423.966826" height="204.373752" fill="white">
            <use xlink:href="#path-1"></use>
        </mask>
        <polyline id="path-3" points="101.524328 210.777506 84.5257384 210.777506 84.5257384 67.281042 228.022203 67.281042 228.022203 210.777506 211.401548 210.777506"></polyline>
        <mask id="mask-4" maskContentUnits="userSpaceOnUse" maskUnits="objectBoundingBox" x="0" y="0" width="143.496464" height="143.496464" fill="white">
            <use xlink:href="#path-3"></use>
        </mask>
        <polyline id="path-5" points="318.943213 210.777506 301.944624 210.777506 301.944624 67.281042 445.441088 67.281042 445.441088 210.777506 428.820433 210.777506"></polyline>
        <mask id="mask-6" maskContentUnits="userSpaceOnUse" maskUnits="objectBoundingBox" x="0" y="0" width="143.496464" height="143.496464" fill="white">
            <use xlink:href="#path-5"></use>
        </mask>
        <polyline id="path-7" points="579.845876 210.777506 562.847286 210.777506 562.847286 67.281042 706.34375 67.281042 706.34375 210.777506 689.723095 210.777506"></polyline>
        <mask id="mask-8" maskContentUnits="userSpaceOnUse" maskUnits="objectBoundingBox" x="0" y="0" width="143.496464" height="143.496464" fill="white">
            <use xlink:href="#path-7"></use>
        </mask>
    </defs>
    <g id="Page-1" stroke="none" stroke-width="1" fill="none" fill-rule="evenodd">
        <g id="Desktop">
            <use id="Rectangle-3" stroke="#FFFFFF" mask="url(#mask-2)" stroke-width="6" stroke-linejoin="round" stroke-dasharray="4" xlink:href="#path-1"></use>
            <g id="database" transform="translate(122.000000, 96.000000)" stroke="#4A4A4A" stroke-width="3">
                <path d="M1.5933602,33.4180879 C1.5933602,40.756135 16.2213092,46.7047976 34.2434744,46.7047976 C52.2656397,46.7047976 67.6652864,40.756135 67.6652864,33.4180879" id="Oval"></path>
                <path d="M1.60004837,53.5494662 C1.60004837,60.8875133 16.2213092,66.8361758 34.2434744,66.8361758 C52.2656397,66.8361758 67.6613522,60.8875133 67.6613522,53.5494662" id="Oval"></path>
                <path d="M1.59631086,74.9870249 C1.59631086,82.325072 16.2213092,86.9675541 34.2434744,86.9675541 C52.2656397,86.9675541 67.6894819,82.0362732 67.6894819,74.6982261" id="Oval"></path>
                <ellipse id="Oval" cx="34.6463388" cy="13.2867097" rx="33.0348812" ry="13.2867097"></ellipse>
                <path d="M1.63064164,14.0919648 L1.63064164,73.6808444" id="Line" stroke-linecap="square"></path>
                <path d="M67.9337675,14.5537676 L67.9530358,73.6808444" id="Line" stroke-linecap="square"></path>
            </g>
            <text id="Database" font-family="AkzidenzGroteskBQ-Light, Akzidenz-Grotesk BQ" font-size="24" font-weight="300" letter-spacing="0.0166666675" fill="#FFFFFF">
                <tspan x="109.346667" y="214">Database</tspan>
            </text>
            <text id="Data" font-family="AkzidenzGroteskBQ-Light, Akzidenz-Grotesk BQ" font-size="14" font-weight="300" letter-spacing="0.00972222351" fill="#FFFFFF">
                <tspan x="251.679755" y="121">Data</tspan>
            </text>
            <text id="Back-End" font-family="AkzidenzGroteskBQ-Light, Akzidenz-Grotesk BQ" font-size="24" font-weight="300" letter-spacing="0.0166666675" fill="#FFFFFF">
                <tspan x="325.730667" y="216">Back-End</tspan>
            </text>
            <text id="Browser" font-family="AkzidenzGroteskBQ-Light, Akzidenz-Grotesk BQ" font-size="24" font-weight="300" letter-spacing="0.0166666675" fill="#FFFFFF">
                <tspan x="593.339333" y="215">Browser</tspan>
            </text>
            <text id="HTML" font-family="AkzidenzGroteskBQ-Light, Akzidenz-Grotesk BQ" font-size="14" font-weight="300" letter-spacing="0.00972222351" fill="#FFFFFF">
                <tspan x="502.433605" y="121">HTML</tspan>
            </text>
            <path d="M529.498654,140.168079 L494,140.168079 L494,147.39962 L529.498654,147.39962 L529.498654,153.5677 L545.093438,143.78385 L529.498654,134 L529.498654,140.168079 Z" id="Combined-Shape" fill="#4A4A4A"></path>
            <path d="M274.498654,140.168079 L239,140.168079 L239,147.39962 L274.498654,147.39962 L274.498654,153.5677 L290.093438,143.78385 L274.498654,134 L274.498654,140.168079 Z" id="Combined-Shape" fill="#4A4A4A"></path>
            <g id="browser" transform="translate(590.000000, 104.000000)" fill="#4A4A4A">
                <g id="Group">
                    <g transform="translate(0.000000, 0.652584)" id="Shape">
                        <path d="M6.15196618,0.370543169 C2.77923265,0.370543169 0,3.14386685 0,6.50942934 L0,61.7594458 C0,65.1249878 2.77923265,67.898332 6.15196618,67.898332 L84.0768712,67.898332 C87.4496046,67.898332 90.2288374,65.1249878 90.2288374,61.7594458 L90.2288374,6.50942934 C90.2288374,3.14386685 87.4496046,0.370543169 84.0768712,0.370543169 L6.15196618,0.370543169 Z M6.15196618,4.46313395 L28.7732585,4.46313395 L36.8156726,14.6946109 L4.10131069,14.6946109 L4.10131069,6.50942934 C4.10131069,5.34038078 4.9804165,4.46313395 6.15196618,4.46313395 L6.15196618,4.46313395 Z M33.96398,4.46313395 L84.0768712,4.46313395 C85.2484106,4.46313395 86.1275266,5.34038078 86.1275266,6.50942934 L86.1275266,14.6946109 L42.0063941,14.6946109 L33.96398,4.46313395 Z M9.22794927,7.53257703 C8.09540306,7.53257703 7.17729388,8.44873417 7.17729388,9.57887242 C7.17729388,10.7090004 8.09540306,11.6251678 9.22794927,11.6251678 C10.3604955,11.6251678 11.2786047,10.7090004 11.2786047,9.57887242 C11.2786047,8.44873417 10.3604955,7.53257703 9.22794927,7.53257703 Z M16.4052432,7.53257703 C15.2726969,7.53257703 14.3545878,8.44873417 14.3545878,9.57887242 C14.3545878,10.7090004 15.2726969,11.6251678 16.4052432,11.6251678 C17.5377894,11.6251678 18.4558985,10.7090004 18.4558985,9.57887242 C18.4558985,8.44873417 17.5377894,7.53257703 16.4052432,7.53257703 Z M23.582537,7.53257703 C22.4499908,7.53257703 21.5318816,8.44873417 21.5318816,9.57887242 C21.5318816,10.7090004 22.4499908,11.6251678 23.582537,11.6251678 C24.7150833,11.6251678 25.6331924,10.7090004 25.6331924,9.57887242 C25.6331924,8.44873417 24.7150833,7.53257703 23.582537,7.53257703 Z M4.10131069,18.7872017 L86.1275266,18.7872017 L86.1275266,61.7594458 C86.1275266,62.9284944 85.2484106,63.8057412 84.0768712,63.8057412 L6.15196618,63.8057412 C4.9804165,63.8057412 4.10131069,62.9284944 4.10131069,61.7594458 L4.10131069,18.7872017 Z"></path>
                    </g>
                </g>
            </g>
            <g id="back-end" transform="translate(325.000000, 90.000000)" fill="#4A4A4A">
                <g id="Group">
                    <g transform="translate(0.000000, 11.541319)">
                        <path d="M79.1404742,23.0826383 L4.94627964,23.0826383 C2.2192308,23.0826383 0,20.8634075 0,18.1363587 L0,4.94627964 C0,2.2192308 2.2192308,0 4.94627964,0 L79.1404742,0 C81.8675231,0 84.0867538,2.2192308 84.0867538,4.94627964 L84.0867538,18.1363587 C84.0867538,20.8634075 81.8675231,23.0826383 79.1404742,23.0826383 Z M4.94627964,3.29751976 C4.03616418,3.29751976 3.29751976,4.03781294 3.29751976,4.94627964 L3.29751976,18.1363587 C3.29751976,19.0448254 4.03616418,19.7851186 4.94627964,19.7851186 L79.1404742,19.7851186 C80.0505897,19.7851186 80.7892341,19.0448254 80.7892341,18.1363587 L80.7892341,4.94627964 C80.7892341,4.03781294 80.0505897,3.29751976 79.1404742,3.29751976 L4.94627964,3.29751976 Z" id="Shape"></path>
                        <rect id="Rectangle-path" x="8.2437994" y="9.89255928" width="3.29751976" height="3.29751976"></rect>
                        <rect id="Rectangle-path" x="14.8388389" y="9.89255928" width="3.29751976" height="3.29751976"></rect>
                        <rect id="Rectangle-path" x="21.4338784" y="9.89255928" width="3.29751976" height="3.29751976"></rect>
                    </g>
                    <g transform="translate(0.000000, 37.921477)">
                        <path d="M79.1404742,23.0826383 L4.94627964,23.0826383 C2.2192308,23.0826383 0,20.8634075 0,18.1363587 L0,4.94627964 C0,2.2192308 2.2192308,0 4.94627964,0 L79.1404742,0 C81.8675231,0 84.0867538,2.2192308 84.0867538,4.94627964 L84.0867538,18.1363587 C84.0867538,20.8634075 81.8675231,23.0826383 79.1404742,23.0826383 Z M4.94627964,3.29751976 C4.03616418,3.29751976 3.29751976,4.03781294 3.29751976,4.94627964 L3.29751976,18.1363587 C3.29751976,19.0448254 4.03616418,19.7851186 4.94627964,19.7851186 L79.1404742,19.7851186 C80.0505897,19.7851186 80.7892341,19.0448254 80.7892341,18.1363587 L80.7892341,4.94627964 C80.7892341,4.03781294 80.0505897,3.29751976 79.1404742,3.29751976 L4.94627964,3.29751976 Z" id="Shape"></path>
                        <rect id="Rectangle-path" x="8.2437994" y="9.89255928" width="3.29751976" height="3.29751976"></rect>
                        <rect id="Rectangle-path" x="14.8388389" y="9.89255928" width="3.29751976" height="3.29751976"></rect>
                        <rect id="Rectangle-path" x="21.4338784" y="9.89255928" width="3.29751976" height="3.29751976"></rect>
                    </g>
                    <g transform="translate(0.000000, 64.301635)">
                        <path d="M79.1404742,23.0826383 L4.94627964,23.0826383 C2.2192308,23.0826383 0,20.8634075 0,18.1363587 L0,4.94627964 C0,2.2192308 2.2192308,0 4.94627964,0 L79.1404742,0 C81.8675231,0 84.0867538,2.2192308 84.0867538,4.94627964 L84.0867538,18.1363587 C84.0867538,20.8634075 81.8675231,23.0826383 79.1404742,23.0826383 Z M4.94627964,3.29751976 C4.03616418,3.29751976 3.29751976,4.03781294 3.29751976,4.94627964 L3.29751976,18.1363587 C3.29751976,19.0448254 4.03616418,19.7851186 4.94627964,19.7851186 L79.1404742,19.7851186 C80.0505897,19.7851186 80.7892341,19.0448254 80.7892341,18.1363587 L80.7892341,4.94627964 C80.7892341,4.03781294 80.0505897,3.29751976 79.1404742,3.29751976 L4.94627964,3.29751976 Z" id="Shape"></path>
                        <rect id="Rectangle-path" x="8.2437994" y="9.89255928" width="3.29751976" height="3.29751976"></rect>
                        <rect id="Rectangle-path" x="14.8388389" y="9.89255928" width="3.29751976" height="3.29751976"></rect>
                        <rect id="Rectangle-path" x="21.4338784" y="9.89255928" width="3.29751976" height="3.29751976"></rect>
                    </g>
                    <rect id="Rectangle-path" x="92.3305532" y="0" width="3.29751976" height="97.2768329"></rect>
                    <rect id="Rectangle-path" x="82.437994" y="21.4338784" width="11.5413192" height="3.29751976"></rect>
                    <rect id="Rectangle-path" x="82.437994" y="47.8140365" width="11.5413192" height="3.29751976"></rect>
                    <rect id="Rectangle-path" x="82.437994" y="74.1941946" width="11.5413192" height="3.29751976"></rect>
                    <path d="M93.9793131,28.0289179 C91.2522643,28.0289179 89.0330335,25.8096872 89.0330335,23.0826383 C89.0330335,20.3555895 91.2522643,18.1363587 93.9793131,18.1363587 C96.706362,18.1363587 98.9255928,20.3555895 98.9255928,23.0826383 C98.9255928,25.8096872 96.706362,28.0289179 93.9793131,28.0289179 Z M93.9793131,21.4338784 C93.0691977,21.4338784 92.3305532,22.1741716 92.3305532,23.0826383 C92.3305532,23.991105 93.0691977,24.7313982 93.9793131,24.7313982 C94.8894286,24.7313982 95.628073,23.991105 95.628073,23.0826383 C95.628073,22.1741716 94.8894286,21.4338784 93.9793131,21.4338784 Z" id="Shape"></path>
                    <path d="M93.9793131,54.409076 C91.2522643,54.409076 89.0330335,52.1898452 89.0330335,49.4627964 C89.0330335,46.7357475 91.2522643,44.5165167 93.9793131,44.5165167 C96.706362,44.5165167 98.9255928,46.7357475 98.9255928,49.4627964 C98.9255928,52.1898452 96.706362,54.409076 93.9793131,54.409076 Z M93.9793131,47.8140365 C93.0691977,47.8140365 92.3305532,48.5543297 92.3305532,49.4627964 C92.3305532,50.3712631 93.0691977,51.1115563 93.9793131,51.1115563 C94.8894286,51.1115563 95.628073,50.3712631 95.628073,49.4627964 C95.628073,48.5543297 94.8894286,47.8140365 93.9793131,47.8140365 Z" id="Shape"></path>
                    <path d="M93.9793131,80.7892341 C91.2522643,80.7892341 89.0330335,78.5700033 89.0330335,75.8429545 C89.0330335,73.1159056 91.2522643,70.8966748 93.9793131,70.8966748 C96.706362,70.8966748 98.9255928,73.1159056 98.9255928,75.8429545 C98.9255928,78.5700033 96.706362,80.7892341 93.9793131,80.7892341 Z M93.9793131,74.1941946 C93.0691977,74.1941946 92.3305532,74.9344878 92.3305532,75.8429545 C92.3305532,76.7514211 93.0691977,77.4917143 93.9793131,77.4917143 C94.8894286,77.4917143 95.628073,76.7514211 95.628073,75.8429545 C95.628073,74.9344878 94.8894286,74.1941946 93.9793131,74.1941946 Z" id="Shape"></path>
                </g>
            </g>
            <use id="Rectangle" stroke="#4A4A4A" mask="url(#mask-4)" stroke-width="2" xlink:href="#path-3"></use>
            <use id="Rectangle" stroke="#4A4A4A" mask="url(#mask-6)" stroke-width="2" xlink:href="#path-5"></use>
            <use id="Rectangle" stroke="#4A4A4A" mask="url(#mask-8)" stroke-width="2" xlink:href="#path-7"></use>
            <text id="Server" font-family="AkzidenzGroteskBQ-Light, Akzidenz-Grotesk BQ" font-size="24" font-weight="300" letter-spacing="0.0166666694" fill="#FFFFFF">
                <tspan x="233.364" y="245.996828">Server</tspan>
            </text>
        </g>
    </g>
</svg>